<svg xmlns="http://www.w3.org/2000/svg" xmlns:xlink="http://www.w3.org/1999/xlink" width="94.826" height="90.219" viewBox="0 0 94.826 90.219">
  <defs>
    <linearGradient id="linear-gradient" x1="0.65" y1="0.129" x2="0.218" y2="1.12" gradientUnits="objectBoundingBox">
      <stop offset="0.35" stop-color="#f3a61f"/>
      <stop offset="0.89" stop-color="#eb431a"/>
    </linearGradient>
  </defs>
  <g id="_5_Star_Reviews" data-name="5 Star Reviews" transform="translate(-2.437)">
    <path id="Path_24" data-name="Path 24" d="M186.787,337.158a16.525,16.525,0,0,1-7.615-1.455,8.545,8.545,0,0,1-3.937-3.9,12.386,12.386,0,0,1-1.164-5.384v-6.2h8.286v6.233a7.009,7.009,0,0,0,.889,3.67c.6.986,1.779,1.471,3.541,1.471a3.994,3.994,0,0,0,3.4-1.358,6.831,6.831,0,0,0,1.035-4.139V309.315a10.735,10.735,0,0,0-.889-4.915q-.889-1.7-3.46-1.7a4.317,4.317,0,0,0-3.371,1.455,6.6,6.6,0,0,0-1.3,4.519l-7.373-.509V280.26h22.9v5.95H182.647v13.137a4.729,4.729,0,0,1,2.506-1.617,11.9,11.9,0,0,1,3.832-.606,10.51,10.51,0,0,1,5.918,1.536q2.312,1.528,3.436,5.449a42.256,42.256,0,0,1,1.124,11.076v1.245q0,5.117-.315,9a19.71,19.71,0,0,1-1.487,6.508,7.955,7.955,0,0,1-3.751,3.929A15.9,15.9,0,0,1,186.787,337.158Z" transform="translate(-171.632 -280.26)" fill="#fff"/>
    <path id="Path_25" data-name="Path 25" d="M183.88,406.677V384.44h6.042a6.963,6.963,0,0,1,3.392.639,2.96,2.96,0,0,1,1.432,1.883,12.541,12.541,0,0,1,.32,3.168,8.229,8.229,0,0,1-.54,3.274,2.79,2.79,0,0,1-2.1,1.566,2.526,2.526,0,0,1,1.3.518,2.746,2.746,0,0,1,.812,1.3,10.492,10.492,0,0,1,.416,2.369q.125,1.487.125,3.737v.62c0,.269,0,.563.016.882s.026.639.042.959.042.588.074.828a1.778,1.778,0,0,0,.131.524h-3.357a1.6,1.6,0,0,1-.115-.505c-.035-.262-.061-.607-.083-1.036s-.038-.943-.048-1.538-.016-1.26-.016-2v-2.42a10.055,10.055,0,0,0-.141-1.918,1.244,1.244,0,0,0-.639-.921,4.277,4.277,0,0,0-1.646-.32l-2.014-.089v10.712Zm3.389-12.666h2.161a2.925,2.925,0,0,0,1.435-.284,1.6,1.6,0,0,0,.678-1.138,13.229,13.229,0,0,0,.182-2.557v-.153a9.945,9.945,0,0,0-.173-2.142,1.378,1.378,0,0,0-.665-.978,3.365,3.365,0,0,0-1.49-.252h-2.129Z" transform="translate(-181.443 -316.725)" fill="#fff"/>
    <path id="Path_26" data-name="Path 26" d="M232,406.677V384.44h8.631v2.174h-5.249v7.6h4.949v2.174h-4.949V404.5h5.291v2.177Z" transform="translate(-214.18 -316.725)" fill="#fff"/>
    <path id="Path_27" data-name="Path 27" d="M270.185,406.657l-4.8-22.247h3.226l1.918,9.418,1.637,8.277h.064l1.426-8.277,1.653-9.418h3.2l-4.376,22.247Z" transform="translate(-236.896 -316.705)" fill="#fff"/>
    <path id="Path_28" data-name="Path 28" d="M315.89,406.677V384.44h3.392v22.237Z" transform="translate(-271.252 -316.725)" fill="#fff"/>
    <path id="Path_29" data-name="Path 29" d="M341.25,406.677V384.44h8.612v2.174h-5.224v7.6h4.945v2.174h-4.945V404.5h5.291v2.177Z" transform="translate(-288.505 -316.725)" fill="#fff"/>
    <path id="Path_30" data-name="Path 30" d="M379.118,406.657l-3.8-22.247h3.126l2.455,17.052,3.267-17.042h2.768l3.357,17.052,2.078-17.052h3.114l-3.4,22.237h-3.357l-3.079-16.419-3.258,16.419Z" transform="translate(-311.683 -316.705)" fill="#fff"/>
    <path id="Path_31" data-name="Path 31" d="M451,406.309a7.1,7.1,0,0,1-2.848-.486,3.814,3.814,0,0,1-1.688-1.384,5.633,5.633,0,0,1-.812-2.119,15.189,15.189,0,0,1-.221-2.7V397.46h3.293v2.263a9.153,9.153,0,0,0,.435,3.344,1.817,1.817,0,0,0,1.873,1,2.4,2.4,0,0,0,1.467-.361,1.758,1.758,0,0,0,.6-1.154,13.58,13.58,0,0,0,.131-2.1,4.686,4.686,0,0,0-.681-2.557,8.264,8.264,0,0,0-1.956-2.062l-1.867-1.458a21.038,21.038,0,0,1-1.6-1.41,7.034,7.034,0,0,1-1.3-1.739,4.7,4.7,0,0,1-.515-2.238,8.35,8.35,0,0,1,.457-2.906,3.542,3.542,0,0,1,1.672-1.9,7.205,7.205,0,0,1,3.44-.671,7,7,0,0,1,2.807.47,3.4,3.4,0,0,1,1.6,1.333,5.326,5.326,0,0,1,.707,2.052,18.87,18.87,0,0,1,.169,2.631v1.336h-3.277v-1.5a15.235,15.235,0,0,0-.141-2.257,2.533,2.533,0,0,0-.563-1.359,1.748,1.748,0,0,0-1.327-.454,2.558,2.558,0,0,0-1.336.32,1.765,1.765,0,0,0-.745.959,5.026,5.026,0,0,0-.23,1.656,3.307,3.307,0,0,0,.281,1.461,3.415,3.415,0,0,0,.841,1.068q.566.492,1.384,1.164l1.966,1.6a11.722,11.722,0,0,1,2.557,2.8,6.544,6.544,0,0,1,.988,3.6,9.528,9.528,0,0,1-.479,3.162,3.737,3.737,0,0,1-1.659,2.04A6.7,6.7,0,0,1,451,406.309Z" transform="translate(-359.295 -316.095)" fill="#fff"/>
    <path id="Path_32" data-name="Path 32" d="M150.514,0l9.232,18.708,20.645,3L165.453,36.268l3.526,20.559-18.465-9.706-18.462,9.706,3.526-20.559L120.64,21.706l20.645-3Z" transform="translate(-83.129)" fill="url(#linear-gradient)"/>
  </g>
</svg>
